<?xml version="1.0" encoding="utf-8"?>
<!-- Generator: Adobe Illustrator 15.1.0, SVG Export Plug-In . SVG Version: 6.00 Build 0)  -->
<!DOCTYPE svg PUBLIC "-//W3C//DTD SVG 1.1//EN" "http://www.w3.org/Graphics/SVG/1.1/DTD/svg11.dtd">
<svg version="1.1" id="Layer_1" xmlns="http://www.w3.org/2000/svg" xmlns:xlink="http://www.w3.org/1999/xlink" x="0px" y="0px"
	 width="50px" height="50px" viewBox="0 0 50 50" enable-background="new 0 0 50 50" xml:space="preserve">
<path fill="none" stroke="#FFFFFF" stroke-width="1.5" stroke-miterlimit="10" d="M27.39,4.797c-8.156,0-14.771,6.615-14.771,14.773
	c0,4.258,1.813,8.084,4.695,10.78L9.831,42.974c-0.663,1.119-0.294,2.567,0.826,3.232l0.954,0.564
	c1.119,0.665,2.567,0.295,3.23-0.828l7.429-12.529c1.597,0.59,3.316,0.929,5.119,0.929c8.158,0,14.774-6.612,14.774-14.771
	C42.164,11.412,35.548,4.797,27.39,4.797z"/>
<path fill="none" stroke="#FFFFFF" stroke-width="1.5" stroke-miterlimit="10" d="M27.303,9.481c-5.542,0-10.04,4.495-10.04,10.041
	c0,5.545,4.498,10.041,10.04,10.041c5.548,0,10.042-4.495,10.042-10.041C37.345,13.976,32.851,9.481,27.303,9.481z"/>
</svg>
