<?xml version="1.0" encoding="utf-8"?>
<!-- Generator: Adobe Illustrator 15.1.0, SVG Export Plug-In . SVG Version: 6.00 Build 0)  -->
<!DOCTYPE svg PUBLIC "-//W3C//DTD SVG 1.1//EN" "http://www.w3.org/Graphics/SVG/1.1/DTD/svg11.dtd">
<svg version="1.1" id="Layer_1" xmlns="http://www.w3.org/2000/svg" xmlns:xlink="http://www.w3.org/1999/xlink" x="0px" y="0px"
	 width="50px" height="50px" viewBox="0 0 50 50" enable-background="new 0 0 50 50" xml:space="preserve">
<path fill="none" stroke="#FFFFFF" stroke-width="1.5" stroke-miterlimit="10" d="M39.309,18.127C39.309,10.326,32.984,4,25.182,4
	c-7.801,0-14.126,6.326-14.126,14.127c0,2.292,0.55,4.455,1.519,6.369h0l0.01,0.017c0.205,0.404,0.429,0.796,0.669,1.177
	l10.567,18.547l0.192,0.339c0.268,0.356,0.69,0.592,1.17,0.592c0.481,0,0.903-0.235,1.172-0.592l0.192-0.339l10.566-18.547
	c0.24-0.38,0.466-0.773,0.669-1.177l0.01-0.017l0,0C38.759,22.582,39.309,20.419,39.309,18.127z"/>
<circle fill="none" stroke="#FFFFFF" stroke-width="1.5" stroke-miterlimit="10" cx="25.182" cy="17.379" r="6.161"/>
</svg>
