<?xml version="1.0" encoding="utf-8"?>
<!-- Generator: Adobe Illustrator 15.1.0, SVG Export Plug-In . SVG Version: 6.00 Build 0)  -->
<!DOCTYPE svg PUBLIC "-//W3C//DTD SVG 1.1//EN" "http://www.w3.org/Graphics/SVG/1.1/DTD/svg11.dtd">
<svg version="1.1" id="Layer_1" xmlns="http://www.w3.org/2000/svg" xmlns:xlink="http://www.w3.org/1999/xlink" x="0px" y="0px"
	 width="56.693px" height="56.693px" viewBox="0 0 56.693 56.693" enable-background="new 0 0 56.693 56.693" xml:space="preserve">
<circle fill="none" stroke="#FFFFFF" stroke-width="2" stroke-miterlimit="10" cx="28.346" cy="28.346" r="26.031"/>
<g>
	<path fill="#FFFFFF" d="M38.398,24.098c0.015,0.208,0.015,0.417,0.015,0.625c0,6.353-4.836,13.674-13.674,13.674
		c-2.723,0-5.252-0.789-7.38-2.158c0.387,0.045,0.759,0.06,1.161,0.06c2.247,0,4.315-0.76,5.967-2.053
		c-2.113-0.045-3.883-1.429-4.494-3.333c0.298,0.043,0.596,0.075,0.908,0.075c0.432,0,0.863-0.06,1.265-0.165
		c-2.202-0.445-3.854-2.38-3.854-4.716c0-0.015,0-0.045,0-0.06c0.64,0.357,1.383,0.581,2.172,0.61
		c-1.295-0.863-2.143-2.336-2.143-4.002c0-0.894,0.238-1.711,0.655-2.426c2.365,2.916,5.922,4.821,9.909,5.029
		c-0.074-0.357-0.119-0.729-0.119-1.101c0-2.649,2.143-4.807,4.807-4.807c1.382,0,2.633,0.581,3.51,1.519
		c1.087-0.209,2.129-0.61,3.053-1.161c-0.358,1.116-1.118,2.053-2.113,2.648c0.965-0.104,1.902-0.372,2.767-0.743
		C40.156,22.565,39.336,23.413,38.398,24.098z"/>
</g>
</svg>
